<?xml version="1.0" encoding="UTF-8"?>
<svg xmlns="http://www.w3.org/2000/svg" xmlns:xlink="http://www.w3.org/1999/xlink" width="40px" height="40px" viewBox="0 0 40 57" version="1.1">
<g id="surface1">
<path style=" stroke:none;fill-rule:nonzero;fill:rgb(100%,50.196078%,0%);fill-opacity:1;" d="M 38.789062 1.671875 C 12.246094 -5.820312 0.375 13.472656 1.269531 29.953125 C 2.140625 45.945312 17.589844 63.460938 40 54.613281 C 10.777344 37.457031 22.015625 8.390625 38.789062 1.671875 Z M 38.789062 1.671875 "/>
<path style=" stroke:none;fill-rule:nonzero;fill:rgb(100%,77.647059%,0%);fill-opacity:1;" d="M 27.152344 2.03125 C 22.445312 2.070312 17.699219 3.382812 13.832031 6.074219 C 9.632812 9.007812 6.582031 13.414062 4.933594 18.214844 C 2.730469 24.546875 2.660156 31.660156 5.046875 37.949219 C 7.230469 43.734375 11.332031 48.855469 16.738281 51.96875 C 21.238281 54.546875 26.652344 55.476562 31.796875 54.742188 C 32.992188 54.574219 34.167969 54.328125 35.332031 54.023438 C 30.617188 50.738281 26.453125 46.5625 23.621094 41.5625 C 20.070312 35.269531 18.960938 27.625 20.734375 20.617188 C 22.484375 13.363281 26.921875 6.757812 33.09375 2.46875 C 31.128906 2.183594 29.140625 2.007812 27.152344 2.03125 Z M 27.152344 2.03125 "/>
<path style=" stroke:none;fill-rule:nonzero;fill:rgb(37.254902%,55.294118%,82.745098%);fill-opacity:1;" d="M 21.324219 30.875 C 15.035156 26.539062 9.785156 31.039062 8.097656 35.550781 C -2.222656 37.265625 -5.042969 59.417969 13.9375 54.90625 C 19.96875 57.78125 23.167969 56.324219 26.09375 53.855469 C 36.132812 56.382812 44.84375 40.199219 34.507812 37.253906 C 34.25 26.75 25.140625 28.59375 21.324219 30.875 Z M 21.324219 30.875 "/>
<path style=" stroke:none;fill-rule:nonzero;fill:rgb(66.666667%,80%,100%);fill-opacity:1;" d="M 27.660156 30.667969 C 25.511719 30.652344 23.480469 31.472656 21.59375 32.40625 C 20.871094 32.539062 20.246094 32.054688 19.683594 31.679688 C 18.21875 30.8125 16.398438 30.417969 14.734375 30.894531 C 12.765625 31.480469 11.191406 32.980469 10.210938 34.734375 C 9.808594 35.449219 9.503906 36.214844 9.265625 36.996094 C 7.148438 37.046875 5.183594 38.25 3.929688 39.894531 C 1.929688 42.46875 1.101562 45.949219 1.878906 49.125 C 2.449219 51.382812 4.40625 53.238281 6.71875 53.675781 C 8.960938 54.179688 11.308594 53.921875 13.523438 53.398438 C 14.007812 53.289062 14.515625 53.394531 14.941406 53.632812 C 15.882812 54.109375 16.890625 54.453125 17.917969 54.691406 C 19.355469 55.011719 20.917969 55.03125 22.289062 54.449219 C 23.394531 54.003906 24.371094 53.289062 25.257812 52.515625 C 25.875 52.152344 26.632812 52.339844 27.285156 52.492188 C 29.496094 52.785156 31.746094 51.992188 33.453125 50.617188 C 35.625 48.890625 37.230469 46.375 37.554688 43.605469 C 37.714844 42.210938 37.277344 40.683594 36.144531 39.78125 C 35.371094 39.140625 34.378906 38.847656 33.457031 38.492188 C 32.945312 38.117188 32.867188 37.425781 32.914062 36.835938 C 32.832031 35.183594 32.46875 33.457031 31.382812 32.152344 C 30.457031 31.128906 29.03125 30.640625 27.660156 30.667969 Z M 27.660156 30.667969 "/>
</g>
</svg>
